# xmcd
#
# Track frame offsets:
#	150
#	12060
#	27593
#	47274
#	61514
#	87101
#	96833
#	118473
#	137862
#	149992
#	173153
#	181872
#	192994
#
# Disc length: 2747 seconds
#
# Revision: 2
# Processed by: cddbd v1.5.2PL0 Copyright (c) Steve Scherf et al.
# Submitted via: audiograbber 1.83.01
#
DISCID=b20ab90d
DTITLE=Hank Shizzoe and Claudia Bettinaglio - Why Don't You Love Me? - A Hank Wil
DTITLE=liams Songbook
DYEAR=2006
DGENRE=Country Rock
TTITLE0=Why Don't You Love Me? [female]
TTITLE1=Mind Your Own Business
TTITLE2=I Don't Care (If Tomorrow Never Comes)
TTITLE3=Why Should We Try Anymore
TTITLE4=I Can't Get You Off Of My Mind
TTITLE5=I Won't Be Home No More
TTITLE6=I'll Be A Bachelor Till I Die
TTITLE7=I Just Don't Like This Kind Of Living
TTITLE8=Why Don't You Love Me? [male]
TTITLE9=Six More Miles
TTITLE10=I Could Never Be Ashamed Of You
TTITLE11=My Love For You Has Turned To Hate
TTITLE12=Please Make Up Your Mind
EXTD=
EXTT0=
EXTT1=
EXTT2=
EXTT3=
EXTT4=
EXTT5=
EXTT6=
EXTT7=
EXTT8=
EXTT9=
EXTT10=
EXTT11=
EXTT12=
PLAYORDER=
